<svg xmlns="http://www.w3.org/2000/svg" width="664" height="456" viewBox="0 0 664 456" fill="none"><path opacity="0.2" d="M357.25 11.75H344.75M357.25 11.75V24.25M357.25 11.75L357.25 -67M357.25 11.75L469.75 11.75M357.25 11.75H369.75M357.25 11.75V424.25M344.75 11.75H332.25M344.75 11.75L344.75 -67M344.75 11.75V424.25M332.25 11.75H319.75M332.25 11.75L332.25 -67M332.25 11.75V424.25M319.75 11.75H307.25M319.75 11.75L319.75 -67M319.75 11.75V424.25M307.25 11.75H294.75M307.25 11.75L307.25 -67M307.25 11.75V424.25M307.25 11.75V24.25M307.25 11.75L194.75 11.75M294.75 11.75H282.25M294.75 11.75L294.75 -67L294.75 503V424.25M294.75 11.75V424.25M282.25 11.75H269.75M282.25 11.75V-67L282.25 503V424.25M282.25 11.75L282.25 424.25M269.75 11.75H257.25M269.75 11.75V-67L269.75 503V424.25M269.75 11.75L269.75 424.25M257.25 11.75L244.75 11.75M257.25 11.75V-67L257.25 503V424.25M257.25 11.75L257.25 424.25M244.75 11.75H232.25M244.75 11.75V-67L244.75 503V424.25M244.75 11.75L244.75 424.25M232.25 11.75H219.75M232.25 11.75V-67L232.25 503V424.25M232.25 11.75L232.25 424.25M219.75 11.75L219.75 24.25M219.75 11.75H163.5M219.75 11.75V-67L219.75 503V424.25M219.75 24.25V36.75M219.75 24.25H163.5M219.75 24.25L357.25 24.25M219.75 36.75V49.25M219.75 36.75H163.5M219.75 36.75L357.25 36.75M219.75 49.25V61.75M219.75 49.25H163.5M219.75 49.25L357.25 49.25M219.75 61.75V74.25M219.75 61.75H163.5M219.75 61.75L357.25 61.75M219.75 74.25V86.75M219.75 74.25H163.5M219.75 74.25L357.25 74.25M219.75 86.75V99.25M219.75 86.75H163.5M219.75 86.75L357.25 86.75M219.75 99.25V111.75M219.75 99.25H163.5M219.75 99.25L357.25 99.25M219.75 111.75V124.25M219.75 111.75H163.5M219.75 111.75L357.25 111.75M219.75 124.25V136.75M219.75 124.25H163.5M219.75 124.25L357.25 124.25M219.75 136.75V149.25M219.75 136.75H163.5M219.75 136.75L357.25 136.75M219.75 149.25V161.75M219.75 149.25H163.5M219.75 149.25L357.25 149.25M219.75 161.75V174.25M219.75 161.75H163.5M219.75 161.75L357.25 161.75M219.75 174.25V186.75M219.75 174.25H163.5M219.75 174.25L357.25 174.25M219.75 186.75V199.25M219.75 186.75H163.5M219.75 186.75L357.25 186.75M219.75 199.25V211.75M219.75 199.25H163.5M219.75 199.25H357.25M219.75 211.75V224.25M219.75 211.75H163.5M219.75 211.75H357.25M219.75 224.25V236.75M219.75 224.25H163.5M219.75 224.25H357.25M219.75 236.75V249.25M219.75 236.75H163.5M219.75 236.75H357.25M219.75 249.25V261.75M219.75 249.25H163.5M219.75 249.25H357.25M219.75 261.75V274.25M219.75 261.75H163.5M219.75 261.75H357.25M219.75 274.25L219.75 286.75M219.75 274.25H163.5M219.75 274.25H357.25M219.75 286.75V299.25M219.75 286.75H163.5M219.75 286.75H357.25M219.75 299.25V311.75M219.75 299.25H163.5M219.75 299.25H357.25M219.75 311.75V324.25M219.75 311.75H163.5M219.75 311.75H357.25M219.75 324.25V336.75M219.75 324.25H163.5M219.75 324.25H357.25M219.75 336.75V349.25M219.75 336.75H163.5M219.75 336.75H357.25M219.75 349.25V361.75M219.75 349.25H163.5M219.75 349.25H357.25M219.75 361.75V374.25M219.75 361.75H163.5M219.75 361.75H357.25M219.75 374.25V386.75M219.75 374.25H163.5M219.75 374.25H357.25M219.75 386.75V399.25M219.75 386.75H163.5M219.75 386.75H357.25M219.75 399.25V411.75M219.75 399.25H163.5M219.75 399.25H357.25M219.75 411.75V424.25M219.75 411.75H163.5M219.75 411.75H357.25M219.75 424.25H232.25M219.75 424.25H163.5M232.25 424.25H244.75M244.75 424.25H257.25M257.25 424.25H269.75M269.75 424.25H282.25M282.25 424.25H294.75M294.75 424.25H307.25M307.25 424.25H319.75M307.25 424.25V503M307.25 424.25V411.75M307.25 424.25H194.75M319.75 424.25H332.25M319.75 424.25V503M332.25 424.25H344.75M332.25 424.25V503M344.75 424.25H357.25M344.75 424.25V503M357.25 424.25V411.75M357.25 424.25V503M357.25 424.25H469.75M357.25 424.25H369.75M357.25 411.75V399.25M357.25 411.75H469.75M357.25 399.25V386.75M357.25 399.25H469.75M357.25 386.75V374.25M357.25 386.75H469.75M357.25 374.25V361.75M357.25 374.25H469.75M357.25 361.75V349.25M357.25 361.75H469.75M357.25 349.25V336.75M357.25 349.25H469.75M357.25 336.75V324.25M357.25 336.75H469.75M357.25 324.25V311.75M357.25 324.25H469.75M357.25 311.75V299.25M357.25 311.75H469.75M357.25 299.25V286.75M357.25 299.25H469.75M357.25 286.75V274.25M357.25 286.75H469.75M357.25 274.25V261.75M357.25 274.25H469.75M357.25 261.75V249.25M357.25 261.75H469.75M357.25 249.25V236.75M357.25 249.25H469.75M357.25 236.75V224.25M357.25 236.75H469.75M357.25 224.25V211.75M357.25 224.25H469.75M357.25 211.75V199.25M357.25 211.75H469.75M357.25 199.25V186.75M357.25 199.25H469.75M357.25 186.75V174.25M357.25 186.75L469.75 186.75M357.25 174.25V161.75M357.25 174.25L469.75 174.25M357.25 161.75V149.25M357.25 161.75L469.75 161.75M357.25 149.25V136.75M357.25 149.25L469.75 149.25M357.25 136.75V124.25M357.25 136.75L469.75 136.75M357.25 124.25V111.75M357.25 124.25L469.75 124.25M357.25 111.75V99.25M357.25 111.75L469.75 111.75M357.25 99.25V86.75M357.25 99.25L469.75 99.25M357.25 86.75V74.25M357.25 86.75L469.75 86.75M357.25 74.25V61.75M357.25 74.25L469.75 74.25M357.25 61.75V49.25M357.25 61.75L469.75 61.75M357.25 49.25V36.75M357.25 49.25L469.75 49.25M357.25 36.75V24.25M357.25 36.75L469.75 36.75M357.25 24.25L469.75 24.25M607.25 249.25V236.75M607.25 249.25V261.75M607.25 249.25H663.5M607.25 236.75V224.25M607.25 236.75H663.5M607.25 224.25V211.75M607.25 224.25H663.5M607.25 211.75V199.25M607.25 211.75H663.5M607.25 199.25V186.75M607.25 199.25H663.5M607.25 186.75V174.25M607.25 186.75H663.5M607.25 174.25V161.75M607.25 174.25H663.5M607.25 161.75V149.25M607.25 161.75H663.5M607.25 149.25V136.75M607.25 149.25H663.5M607.25 136.75V124.25M607.25 136.75H663.5M607.25 124.25V111.75M607.25 124.25H663.5M607.25 111.75V99.25M607.25 111.75H663.5M607.25 99.25V86.75M607.25 99.25H663.5M607.25 86.75V74.25M607.25 86.75H663.5M607.25 74.25V61.75M607.25 74.25H663.5M607.25 61.75V49.25M607.25 61.75H663.5M607.25 49.25V36.75M607.25 49.25H663.5M607.25 36.75V24.25M607.25 36.75H663.5M607.25 24.25V11.75M607.25 24.25H663.5M607.25 11.75H594.75M607.25 11.75V-67M607.25 11.75H663.5M594.75 11.75H582.25M594.75 11.75V-67M582.25 11.75H569.75M582.25 11.75V-67M569.75 11.75H557.25M569.75 11.75V-67M557.25 11.75H544.75M557.25 11.75V-67M544.75 11.75H532.25M544.75 11.75V-67M532.25 11.75H519.75M532.25 11.75V-67M494.75 11.75L507.25 11.75H519.75M519.75 11.75V-67M507.25 11.75V-67M494.75 11.75H482.25M494.75 11.75V-67L494.75 503V424.25M482.25 11.75H469.75M482.25 11.75V-67L482.25 503V424.25M469.75 11.75V24.25M469.75 11.75V-67L469.75 503V424.25M469.75 24.25V36.75M469.75 36.75V49.25M469.75 49.25V61.75M469.75 61.75V74.25M469.75 74.25V86.75M469.75 86.75V99.25M469.75 99.25V111.75M469.75 111.75V124.25M469.75 124.25V136.75M469.75 161.75L469.75 149.25V136.75M469.75 161.75V174.25M469.75 174.25V186.75M469.75 186.75V199.25M469.75 199.25V211.75M469.75 211.75V224.25M469.75 224.25V236.75M469.75 236.75V249.25M469.75 249.25V261.75M469.75 261.75V274.25M469.75 274.25V286.75M469.75 286.75V299.25M469.75 299.25V311.75M469.75 311.75V324.25M469.75 324.25V336.75M469.75 336.75V349.25M469.75 349.25V361.75M469.75 361.75V374.25M469.75 374.25V386.75M469.75 386.75V399.25M469.75 399.25V411.75M469.75 411.75V424.25M469.75 424.25H482.25M482.25 424.25H494.75M494.75 424.25H507.25M507.25 424.25H519.75M507.25 424.25L507.25 503M519.75 424.25H532.25M519.75 424.25L519.75 503M532.25 424.25H544.75M532.25 424.25L532.25 503M544.75 424.25H557.25M544.75 424.25V503M557.25 424.25H569.75M557.25 424.25V503M569.75 424.25H582.25M569.75 424.25V503M582.25 424.25H594.75M582.25 424.25V503M594.75 424.25H607.25M594.75 424.25V503M607.25 424.25V411.75M607.25 424.25H663.5M607.25 424.25V503M607.25 411.75V399.25M607.25 411.75H663.5M607.25 399.25V386.75M607.25 399.25H663.5M607.25 386.75V374.25M607.25 386.75H663.5M607.25 374.25V361.75M607.25 374.25H663.5M607.25 361.75V349.25M607.25 361.75H663.5M607.25 349.25V336.75M607.25 349.25H663.5M607.25 336.75V324.25M607.25 336.75H663.5M607.25 324.25V311.75M607.25 324.25H663.5M607.25 311.75V299.25M607.25 311.75H663.5M607.25 299.25V286.75M607.25 299.25H663.5M607.25 286.75V274.25M607.25 286.75H663.5M607.25 274.25V261.75M607.25 274.25H663.5M607.25 261.75H663.5M657.25 503V-67M644.75 503V-67M632.25 503V-67M619.75 503V-67M457.25 503L457.25 -67M207.25 503L207.25 -67M663.5 -0.749992L163.5 -0.75M663.5 -50.75L163.5 -50.75M663.5 -38.25L163.5 -38.25M663.5 -25.75L163.5 -25.75M663.5 -13.25L163.5 -13.25M663.5 -63.25L163.5 -63.25M663.5 486.75H163.5M663.5 499.25H163.5M663.5 474.25H163.5M663.5 461.75H163.5M663.5 436.75H163.5M663.5 449.25H163.5M369.75 11.75H382.25M369.75 11.75L369.75 -67L369.75 503V424.25M369.75 11.75V424.25M382.25 11.75H394.75M382.25 11.75L382.25 -67L382.25 503V424.25M382.25 11.75L382.25 424.25M394.75 11.75H407.25M394.75 11.75L394.75 -67L394.75 503V424.25M394.75 11.75L394.75 424.25M407.25 11.75L419.75 11.75M407.25 11.75L407.25 -67L407.25 503V424.25M407.25 11.75L407.25 424.25M419.75 11.75H432.25M419.75 11.75L419.75 -67L419.75 503L419.75 424.25M419.75 11.75L419.75 424.25M432.25 11.75H444.75M432.25 11.75L432.25 -67L432.25 503L432.25 424.25M432.25 11.75L432.25 424.25M444.75 11.75V24.25M444.75 11.75H501M444.75 11.75L444.75 -67L444.75 503L444.75 424.25M444.75 24.25V36.75M444.75 24.25H501M444.75 24.25L307.25 24.25M444.75 36.75V49.25M444.75 36.75H501M444.75 36.75L307.25 36.75M444.75 49.25V61.75M444.75 49.25H501M444.75 49.25L307.25 49.25M444.75 61.75V74.25M444.75 61.75H501M444.75 61.75L307.25 61.75M444.75 74.25V86.75M444.75 74.25H501M444.75 74.25L307.25 74.25M444.75 86.75V99.25M444.75 86.75H501M444.75 86.75L307.25 86.75M444.75 99.25L444.75 111.75M444.75 99.25H501M444.75 99.25L307.25 99.25M444.75 111.75V124.25M444.75 111.75H501M444.75 111.75L307.25 111.75M444.75 124.25V136.75M444.75 124.25H501M444.75 124.25L307.25 124.25M444.75 136.75V149.25M444.75 136.75H501M444.75 136.75L307.25 136.75M444.75 149.25V161.75M444.75 149.25H501M444.75 149.25L307.25 149.25M444.75 161.75V174.25M444.75 161.75H501M444.75 161.75L307.25 161.75M444.75 174.25V186.75M444.75 174.25H501M444.75 174.25L307.25 174.25M444.75 186.75V199.25M444.75 186.75H501M444.75 186.75L307.25 186.75M444.75 199.25V211.75M444.75 199.25H501M444.75 199.25H307.25M444.75 211.75V224.25M444.75 211.75H501M444.75 211.75H307.25M444.75 224.25V236.75M444.75 224.25H501M444.75 224.25H307.25M444.75 236.75V249.25M444.75 236.75H501M444.75 236.75H307.25M444.75 249.25V261.75M444.75 249.25H501M444.75 249.25H307.25M444.75 261.75V274.25M444.75 261.75H501M444.75 261.75H307.25M444.75 274.25V286.75M444.75 274.25H501M444.75 274.25H307.25M444.75 286.75V299.25M444.75 286.75H501M444.75 286.75H307.25M444.75 299.25V311.75M444.75 299.25H501M444.75 299.25H307.25M444.75 311.75V324.25M444.75 311.75H501M444.75 311.75H307.25M444.75 324.25V336.75M444.75 324.25H501M444.75 324.25H307.25M444.75 336.75V349.25M444.75 336.75H501M444.75 336.75H307.25M444.75 349.25V361.75M444.75 349.25H501M444.75 349.25H307.25M444.75 361.75V374.25M444.75 361.75H501M444.75 361.75H307.25M444.75 374.25V386.75M444.75 374.25H501M444.75 374.25H307.25M444.75 386.75V399.25M444.75 386.75H501M444.75 386.75H307.25M444.75 399.25V411.75M444.75 399.25H501M444.75 399.25H307.25M444.75 411.75V424.25M444.75 411.75H501M444.75 411.75H307.25M444.75 424.25H432.25M444.75 424.25H501M432.25 424.25H419.75M419.75 424.25H407.25M407.25 424.25H394.75M394.75 424.25H382.25M382.25 424.25H369.75M307.25 411.75V399.25M307.25 411.75H194.75M307.25 399.25V386.75M307.25 399.25H194.75M307.25 386.75V374.25M307.25 386.75H194.75M307.25 374.25V361.75M307.25 374.25H194.75M307.25 361.75V349.25M307.25 361.75H194.75M307.25 349.25V336.75M307.25 349.25H194.75M307.25 336.75V324.25M307.25 336.75H194.75M307.25 324.25V311.75M307.25 324.25H194.75M307.25 311.75V299.25M307.25 311.75H194.75M307.25 299.25V286.75M307.25 299.25H194.75M307.25 286.75V274.25M307.25 286.75H194.75M307.25 274.25V261.75M307.25 274.25H194.75M307.25 261.75V249.25M307.25 261.75H194.75M307.25 249.25V236.75M307.25 249.25H194.75M307.25 236.75V224.25M307.25 236.75H194.75M307.25 224.25V211.75M307.25 224.25H194.75M307.25 211.75V199.25M307.25 211.75H194.75M307.25 199.25V186.75M307.25 199.25H194.75M307.25 186.75V174.25M307.25 186.75L194.75 186.75M307.25 174.25V161.75M307.25 174.25L194.75 174.25M307.25 161.75V149.25M307.25 161.75L194.75 161.75M307.25 149.25V136.75M307.25 149.25L194.75 149.25M307.25 136.75V124.25M307.25 136.75L194.75 136.75M307.25 124.25V111.75M307.25 124.25L194.75 124.25M307.25 111.75V99.25M307.25 111.75L194.75 111.75M307.25 99.25V86.75M307.25 99.25L194.75 99.25M307.25 86.75V74.25M307.25 86.75L194.75 86.75M307.25 74.25V61.75M307.25 74.25L194.75 74.25M307.25 61.75V49.25M307.25 61.75L194.75 61.75M307.25 49.25V36.75M307.25 49.25L194.75 49.25M307.25 36.75V24.25M307.25 36.75L194.75 36.75M307.25 24.25L194.75 24.25M57.25 249.25V236.75M57.25 249.25V261.75M57.25 249.25H1.00M57.25 236.75V224.25M57.25 236.75H1.00M57.25 224.25V211.75M57.25 224.25H1.00M57.25 211.75V199.25M57.25 211.75H1.00M57.25 199.25V186.75M57.25 199.25H1.00M57.25 186.75V174.25M57.25 186.75H1.00M57.25 149.25L57.25 161.75V174.25M57.25 174.25H1.00M57.25 161.75H1.00M57.25 149.25V136.75M57.25 149.25H1M57.25 111.75V124.25L57.25 136.75M57.25 136.75H1M57.25 124.25H1M57.25 111.75V99.25M57.25 111.75H1M57.25 99.25V86.75M57.25 99.25H1M57.25 61.75L57.25 74.25V86.75M57.25 86.75H1M57.25 74.25H1M57.25 61.75V49.25M57.25 61.75H1M57.25 49.25V36.75M57.25 49.25H1M57.25 36.75V24.25M57.25 36.75H1M57.25 24.25V11.75M57.25 24.25H1M57.25 11.75H69.75M57.25 11.75V-67M57.25 11.75H1M69.75 11.75H82.25M69.75 11.75V-67M82.25 11.75H94.75M82.25 11.75V-67M94.75 11.75H107.25M94.75 11.75V-67M107.25 11.75H119.75M107.25 11.75V-67M119.75 11.75H132.25M119.75 11.75V-67M132.25 11.75H144.75M132.25 11.75V-67M169.75 11.75L157.25 11.75H144.75M144.75 11.75V-67M157.25 11.75V-67M169.75 11.75H182.25M169.75 11.75L169.75 -67L169.75 503L169.75 424.25M182.25 11.75H194.75M182.25 11.75L182.25 -67L182.25 503L182.25 424.25M194.75 11.75V24.25M194.75 11.75L194.75 -67L194.75 503L194.75 424.25M194.75 24.25V36.75M194.75 36.75V49.25M194.75 49.25V61.75M194.75 61.75V74.25M194.75 74.25V86.75M194.75 86.75V99.25M194.75 99.25V111.75M194.75 111.75V124.25M194.75 124.25V136.75M194.75 161.75L194.75 149.25V136.75M194.75 161.75V174.25M194.75 174.25V186.75M194.75 186.75V199.25M194.75 199.25V211.75M194.75 211.75V224.25M194.75 224.25V236.75M194.75 236.75V249.25M194.75 249.25V261.75M194.75 261.75V274.25M194.75 274.25V286.75M194.75 286.75V299.25M194.75 299.25V311.75M194.75 311.75V324.25M194.75 324.25V336.75M194.75 336.75V349.25M194.75 349.25V361.75M194.75 361.75V374.25M194.75 374.25V386.75M194.75 386.75V399.25M194.75 399.25V411.75M194.75 411.75V424.25M194.75 424.25H182.25M182.25 424.25H169.75M169.75 424.25H157.25M157.25 424.25H144.75M157.25 424.25L157.25 503M144.75 424.25H132.25M144.75 424.25L144.75 503M132.25 424.25H119.75M132.25 424.25L132.25 503M119.75 424.25H107.25M119.75 424.25V503M107.25 424.25H94.75M107.25 424.25V503M94.75 424.25H82.25M94.75 424.25V503M82.25 424.25H69.75M82.25 424.25V503M69.75 424.25H57.25M69.75 424.25V503M57.25 424.25V411.75M57.25 424.25H1.00M57.25 424.25V503M57.25 411.75V399.25M57.25 411.75H1.00M57.25 399.25V386.75M57.25 399.25H1.00M57.25 386.75V374.25M57.25 386.75H1.00M57.25 374.25V361.75M57.25 374.25H1.00M57.25 361.75V349.25M57.25 361.75H1.00M57.25 349.25V336.75M57.25 349.25H1.00M57.25 336.75V324.25M57.25 336.75H1.00M57.25 324.25V311.75M57.25 324.25H1.00M57.25 311.75V299.25M57.25 311.75H1.00M57.25 299.25V286.75M57.25 299.25H1.00M57.25 286.75V274.25M57.25 286.75H1.00M57.25 274.25V261.75M57.25 274.25H1.00M57.25 261.75H1.00M7.25 503L7.25 -67M19.75 503L19.75 -67M32.25 503L32.25 -67M44.75 503L44.75 -67M1 -0.749992L501 -0.75M1 -50.75L501 -50.75M1 -38.25L501 -38.25M1 -25.75L501 -25.75M1 -13.25L501 -13.25M1 -63.25L501 -63.25M1.00 486.75H501M1.00 499.25H501M1.00 474.25H501M1.00 461.75H501M1.00 436.75H501M1.00 449.25H501" stroke="#78716C" stroke-width="0.5"/><path d="M481 155.68L342.90 362.83H332M183 155.68L321.09 362.83H332M332 362.83V97.53" stroke="#ED3A20" stroke-width="0.5" stroke-dasharray="2 2"/><path d="M332 130.25C373.13 130.25 410.37 133.10 437.31 137.71C450.79 140.02 461.68 142.76 469.19 145.80C472.95 147.32 475.85 148.91 477.81 150.55C479.77 152.19 480.75 153.84 480.75 155.5C480.75 157.15 479.77 158.80 477.81 160.44C475.85 162.08 472.95 163.67 469.19 165.19C461.68 168.23 450.79 170.97 437.31 173.28C410.37 177.89 373.13 180.75 332 180.75C290.86 180.75 253.63 177.89 226.68 173.28C213.20 170.97 202.31 168.23 194.80 165.19C191.04 163.67 188.14 162.08 186.18 160.44C184.22 158.80 183.25 157.15 183.25 155.5C183.25 153.84 184.22 152.19 186.18 150.55C188.14 148.91 191.04 147.32 194.80 145.80C202.31 142.76 213.20 140.02 226.68 137.71C253.63 133.10 290.86 130.25 332 130.25Z" stroke="#FDF9F7" stroke-width="0.5"/><path d="M332 196.25C362.36 196.25 389.85 198.26 409.74 201.51C419.68 203.14 427.72 205.08 433.26 207.22C436.03 208.29 438.17 209.41 439.60 210.56C441.05 211.71 441.75 212.86 441.75 214C441.75 215.13 441.05 216.28 439.60 217.43C438.17 218.58 436.03 219.70 433.26 220.77C427.72 222.91 419.68 224.85 409.74 226.48C389.85 229.73 362.36 231.75 332 231.75C301.63 231.75 274.14 229.73 254.25 226.48C244.31 224.85 236.27 222.91 230.73 220.77C227.96 219.70 225.82 218.58 224.39 217.43C222.95 216.28 222.25 215.13 222.25 214C222.25 212.86 222.95 211.71 224.39 210.56C225.82 209.41 227.96 208.29 230.73 207.22C236.27 205.08 244.31 203.14 254.25 201.51C274.14 198.26 301.63 196.25 332 196.25Z" stroke="#ED3A20" stroke-width="0.5"/><path d="M332 251.25C352.14 251.25 370.37 253.20 383.56 256.36C390.15 257.95 395.47 259.82 399.14 261.90C402.82 263.99 404.75 266.23 404.75 268.5C404.75 270.76 402.82 273.00 399.14 275.09C395.47 277.17 390.15 279.05 383.56 280.63C370.37 283.79 352.14 285.75 332 285.75C311.85 285.75 293.62 283.79 280.43 280.63C273.84 279.05 268.52 277.17 264.86 275.09C261.17 273.00 259.25 270.76 259.25 268.5C259.25 266.23 261.17 263.99 264.86 261.90C268.52 259.82 273.84 257.95 280.43 256.36C293.62 253.20 311.85 251.25 332 251.25Z" stroke="#FDF9F7" stroke-width="0.5"/><path d="M332 302.25C344.41 302.25 355.64 303.36 363.76 305.17C367.82 306.07 371.09 307.14 373.34 308.32C374.47 308.92 375.32 309.53 375.90 310.15C376.47 310.77 376.75 311.39 376.75 312C376.75 312.60 376.47 313.22 375.90 313.84C375.32 314.46 374.47 315.08 373.34 315.67C371.09 316.85 367.82 317.92 363.76 318.82C355.64 320.63 344.41 321.75 332 321.75C319.58 321.75 308.35 320.63 300.23 318.82C296.17 317.92 292.90 316.85 290.65 315.67C289.52 315.08 288.67 314.46 288.09 313.84C287.52 313.22 287.25 312.60 287.25 312C287.25 311.39 287.52 310.77 288.09 310.15C288.67 309.53 289.52 308.92 290.65 308.32C292.90 307.14 296.17 306.07 300.23 305.17C308.35 303.36 319.58 302.25 332 302.25Z" stroke="#ED3A20" stroke-width="0.5"/><circle cx="332" cy="362.83" r="10.90" fill="#ED3A20"/><circle cx="332.00" cy="90.26" r="7.01" stroke="#ED3A20" stroke-width="0.5"/></svg>
