<svg xmlns="http://www.w3.org/2000/svg" width="680" height="520" viewBox="0 0 680 520" fill="none" role="img" aria-label="Core technology and delivery">
  <path opacity="0.2" d="M183.6 104V416M196.1 104V416M208.6 104V416M221.1 104V416M233.6 104V416M246.1 104V416M258.6 104V416M271.1 104V416M283.6 104V416M296.1 104V416M308.6 104V416M321.1 104V416M333.6 104V416M346.1 104V416M358.6 104V416M371.1 104V416M383.6 104V416M396.1 104V416M408.6 104V416M421.1 104V416M433.6 104V416M446.1 104V416M458.6 104V416M471.1 104V416M483.6 104V416M496.1 104V416M183.6 104H496.4M183.6 116.5H496.4M183.6 129H496.4M183.6 141.5H496.4M183.6 154H496.4M183.6 166.5H496.4M183.6 179H496.4M183.6 191.5H496.4M183.6 204H496.4M183.6 216.5H496.4M183.6 229H496.4M183.6 241.5H496.4M183.6 254H496.4M183.6 266.5H496.4M183.6 279H496.4M183.6 291.5H496.4M183.6 304H496.4M183.6 316.5H496.4M183.6 329H496.4M183.6 341.5H496.4M183.6 354H496.4M183.6 366.5H496.4M183.6 379H496.4M183.6 391.5H496.4M183.6 404H496.4" stroke="#78716C" stroke-width="0.5"/>
  <g transform="translate(340 260) scale(1) translate(-340 -260)">
    <circle cx="340" cy="260" r="78" fill="none" stroke="#ED3A20" stroke-width="0.5"/>
    <ellipse cx="340" cy="260" rx="75.3422" ry="78" fill="none" stroke="#ED3A20" stroke-width="0.5"/>
    <ellipse cx="340" cy="260" rx="67.55" ry="78" fill="none" stroke="#ED3A20" stroke-width="0.5"/>
    <ellipse cx="340" cy="260" rx="55.1543" ry="78" fill="none" stroke="#ED3A20" stroke-width="0.5"/>
    <ellipse cx="340" cy="260" rx="39" ry="78" fill="none" stroke="#ED3A20" stroke-width="0.5"/>
    <ellipse cx="340" cy="260" rx="20.1879" ry="78" fill="none" stroke="#ED3A20" stroke-width="0.5"/>
    <path d="M272.45 221L242.919 203.95L200.137 203.95" fill="none" stroke="white" stroke-width="0.5"/>
    <circle cx="200.137" cy="203.95" r="3.5" fill="white"/>
    <path d="M313.322 186.704L299.642 149.116L281.857 149.116" fill="none" stroke="white" stroke-width="0.5"/>
    <circle cx="281.857" cy="149.116" r="3.5" fill="white"/>
    <path d="M376.619 191.13L389.858 166.231L411.829 166.231" fill="none" stroke="white" stroke-width="0.5"/>
    <circle cx="411.829" cy="166.231" r="3.5" fill="white"/>
    <path d="M413.296 233.322L456.428 217.624L507.735 217.624" fill="none" stroke="white" stroke-width="0.5"/>
    <circle cx="507.735" cy="217.624" r="3.5" fill="#ED3A20"/>
    <path d="M408.87 296.619L438.978 312.628L482.596 312.628" fill="none" stroke="white" stroke-width="0.5"/>
    <circle cx="482.596" cy="312.628" r="3.5" fill="white"/>
    <path d="M272.45 299L237.809 319L192.776 319" fill="none" stroke="white" stroke-width="0.5"/>
    <circle cx="192.776" cy="319" r="3.5" fill="white"/>
    <path d="M265.022 238.5L237.914 230.727L192.927 230.727" fill="none" stroke="white" stroke-width="0.5"/>
    <circle cx="192.927" cy="230.727" r="3.5" fill="white"/>
  </g>
</svg>
