<svg xmlns="http://www.w3.org/2000/svg" width="432" height="424" viewBox="0 0 432 424" fill="none"><path opacity="0.2" d="M9.75 155.75V143.25M9.75 155.75V168.25M9.75 155.75L-69 155.75M9.75 155.75L147.25 155.75M9.75 143.25H22.25M9.75 143.25L-69 143.25M9.75 143.25L9.75 87M22.25 143.25L34.75 143.25M22.25 143.25L22.25 87M22.25 143.25L22.25 280.75M34.75 143.25L47.25 143.25M34.75 143.25L34.75 87M34.75 143.25L34.75 280.75M47.25 143.25H59.75M47.25 143.25L47.25 87M47.25 143.25L47.25 280.75M59.75 143.25H72.25M59.75 143.25V87M59.75 143.25L59.75 280.75M72.25 143.25H84.75M72.25 143.25V87M72.25 143.25L72.25 280.75M84.75 143.25H97.25M84.75 143.25V87M84.75 143.25L84.75 280.75M97.25 143.25H109.75M97.25 143.25V87M97.25 143.25L97.25 280.75M109.75 143.25H122.25M109.75 143.25V87M109.75 143.25L109.75 280.75M122.25 143.25L134.75 143.25M122.25 143.25V87M122.25 143.25L122.25 280.75M134.75 143.25L147.25 143.25M134.75 143.25V87M134.75 143.25L134.75 280.75M147.25 143.25V155.75M172.25 143.25H159.75L147.25 143.25M147.25 143.25V87M147.25 155.75V168.25M147.25 168.25L147.25 180.75M147.25 168.25L9.75 168.25M147.25 180.75V193.25M147.25 180.75L9.75 180.75M147.25 193.25V205.75M147.25 193.25L9.75 193.25M147.25 205.75V218.25M147.25 205.75L9.75 205.75M147.25 218.25V230.75M147.25 218.25L9.75 218.25M147.25 230.75V243.25M147.25 230.75L9.75 230.75M147.25 243.25V255.75M147.25 243.25L9.75 243.25M147.25 255.75V268.25M147.25 255.75L9.75 255.75M147.25 268.25V280.75M147.25 268.25H9.75M147.25 280.75H134.75M147.25 280.75H159.75M147.25 280.75V337M134.75 280.75H122.25M134.75 280.75V337M122.25 280.75H109.75M122.25 280.75V337M109.75 280.75H97.25M109.75 280.75V337M97.25 280.75H84.75M97.25 280.75V337M84.75 280.75H72.25M84.75 280.75V337M72.25 280.75H59.75M72.25 280.75V337M59.75 280.75H47.25M59.75 280.75V337M47.25 280.75H34.75M47.25 280.75L47.25 337M34.75 280.75H22.25M34.75 280.75L34.75 337M22.25 280.75H9.75M22.25 280.75L22.25 337M9.75 280.75V268.25M9.75 280.75L9.75 337M9.75 280.75H-69M9.75 268.25V255.75M9.75 268.25H-69M9.75 255.75V243.25M9.75 255.75H-69M9.75 243.25V230.75M9.75 243.25H-69M9.75 230.75L9.75 218.25M9.75 230.75H-69M9.75 218.25V205.75M9.75 218.25H-69M9.75 205.75V193.25M9.75 205.75L-69 205.75M9.75 193.25V180.75M9.75 193.25L-69 193.25M9.75 180.75V168.25M9.75 180.75L-69 180.75M9.75 168.25L-69 168.25M284.75 280.75H297.25M284.75 280.75V268.25M284.75 280.75H272.25M284.75 280.75V337M297.25 280.75H309.75M297.25 280.75V337M297.25 280.75L297.25 143.25M309.75 280.75H322.25M309.75 280.75V337M309.75 280.75L309.75 143.25M322.25 280.75H334.75M322.25 280.75V337M322.25 280.75L322.25 143.25M334.75 280.75H347.25M334.75 280.75V337M334.75 280.75L334.75 143.25M347.25 280.75H359.75M347.25 280.75V337M347.25 280.75L347.25 143.25M359.75 280.75H372.25M359.75 280.75V337M359.75 280.75L359.75 143.25M372.25 280.75L384.75 280.75M372.25 280.75V337M372.25 280.75L372.25 143.25M384.75 280.75H397.25M384.75 280.75V337M384.75 280.75L384.75 143.25M397.25 280.75H409.75M397.25 280.75V337M397.25 280.75L397.25 143.25M409.75 280.75H422.25M409.75 280.75V337M409.75 280.75L409.75 143.25M422.25 280.75V268.25M422.25 280.75H501M422.25 280.75V337M422.25 268.25L422.25 255.75M422.25 268.25H501M422.25 268.25L284.75 268.25M422.25 255.75V243.25M422.25 255.75H501M422.25 255.75L284.75 255.75M422.25 243.25V230.75M422.25 243.25H501M422.25 243.25L284.75 243.25M422.25 230.75V218.25M422.25 230.75H501M422.25 230.75L284.75 230.75M422.25 218.25V205.75M422.25 218.25H501M422.25 218.25L284.75 218.25M422.25 205.75V193.25M422.25 205.75L501 205.75M422.25 205.75L284.75 205.75M422.25 193.25V180.75M422.25 193.25L501 193.25M422.25 193.25L284.75 193.25M422.25 180.75V168.25M422.25 180.75L501 180.75M422.25 180.75L284.75 180.75M422.25 168.25V155.75M422.25 168.25L501 168.25M422.25 168.25L284.75 168.25M422.25 155.75V143.25M422.25 155.75L501 155.75M422.25 155.75L284.75 155.75M422.25 143.25L409.75 143.25M422.25 143.25V87M422.25 143.25L501 143.25M409.75 143.25H397.25M409.75 143.25V87M397.25 143.25L384.75 143.25M397.25 143.25V87M384.75 143.25H372.25M384.75 143.25V87M372.25 143.25H359.75M372.25 143.25V87M359.75 143.25H347.25M359.75 143.25V87M347.25 143.25H334.75M347.25 143.25V87M334.75 143.25H322.25M334.75 143.25V87M322.25 143.25H309.75M322.25 143.25V87M309.75 143.25H297.25M309.75 143.25V87M297.25 143.25H284.75M297.25 143.25V87M284.75 143.25V155.75M284.75 143.25L272.25 143.25M284.75 143.25V87M284.75 155.75V168.25M284.75 168.25V180.75M284.75 180.75V193.25M284.75 193.25V205.75M284.75 205.75V218.25M284.75 218.25V230.75M284.75 230.75V243.25M284.75 243.25V255.75M284.75 255.75L284.75 268.25M159.75 280.75H172.25M159.75 280.75V337M172.25 280.75H184.75M172.25 280.75V337M184.75 280.75L197.25 280.75M184.75 280.75V337M197.25 280.75H209.75M197.25 280.75V337M209.75 280.75H222.25M209.75 280.75V337M222.25 280.75H234.75M222.25 280.75V337M234.75 280.75H247.25M234.75 280.75V337M247.25 280.75H259.75M247.25 280.75V337M259.75 280.75H272.25M259.75 280.75V337M272.25 280.75V337M272.25 143.25H259.75M272.25 143.25V87M259.75 143.25H247.25M259.75 143.25V87M247.25 143.25H234.75M247.25 143.25V87M234.75 143.25H222.25M234.75 143.25V87M222.25 143.25H209.75M222.25 143.25V87M209.75 143.25H197.25M209.75 143.25V87M197.25 143.25H184.75M197.25 143.25V87M184.75 143.25L172.25 143.25M184.75 143.25V87M172.25 143.25V87M159.75 143.25V87M501 93.25L-69 93.25M501 105.75L-69 105.75M501 118.25L-69 118.25M501 130.75L-69 130.75M501 293.25L-69 293.25M501 305.75L-69 305.75M501 318.25L-69 318.25M501 330.75L-69 330.75M-2.75 87L-2.75 337M-52.75 87L-52.75 337M-40.25 87L-40.25 337M-27.75 87L-27.75 337M-15.25 87L-15.25 337M-65.25 87L-65.25 337M484.75 87V337M497.25 87V337M472.25 87V337M459.75 87V337M434.75 87L434.75 337M447.25 87V337" stroke="#ED3A20" stroke-width="0.5"/><circle cx="216" cy="211.5" r="87.75" stroke="#ED3A20" stroke-width="0.5" stroke-dasharray="4 4"/><path d="M216 344L216 80" stroke="#ED3A20" stroke-width="0.5" stroke-dasharray="4 4"/><path d="M255 211.5H403.5" stroke="#ED3A20" stroke-width="0.5"/><path d="M244 184.5L254.87 183.03C271.75 180.76 287.14 172.20 297.98 159.07C310.81 143.51 329.93 134.5 350.10 134.5H392.5" stroke="#ED3A20" stroke-width="0.5"/><path d="M188 184.5L177.12 183.03C160.24 180.76 144.85 172.20 134.02 159.07C121.18 143.51 102.06 134.5 81.89 134.5H39.5" stroke="#1E1E1E" stroke-width="0.5"/><path d="M244 238.5L254.87 239.96C271.75 242.23 287.14 250.79 297.98 263.93C310.81 279.48 329.93 288.5 350.10 288.5H392.5" stroke="#ED3A20" stroke-width="0.5"/><path d="M188 238.5L177.12 239.96C160.24 242.23 144.85 250.79 134.02 263.93C121.18 279.48 102.06 288.5 81.89 288.5H39.5" stroke="#1E1E1E" stroke-width="0.5"/><path d="M29 211.5H177.5" stroke="#1E1E1E" stroke-width="0.5"/><circle cx="216" cy="211.5" r="38.75" stroke="#ED3A20" stroke-width="0.5"/><circle cx="403.5" cy="211.5" r="4.5" fill="#ED3A20"/><circle cx="4.5" cy="4.5" r="4.5" transform="matrix(-1 0 0 1 33 207)" fill="#1E1E1E"/><circle cx="392.5" cy="288.5" r="4.5" fill="#ED3A20"/><circle cx="4.5" cy="4.5" r="4.5" transform="matrix(-1 0 0 1 44 284)" fill="#1E1E1E"/><circle cx="392.5" cy="134.5" r="4.5" fill="#ED3A20"/><circle cx="4.5" cy="4.5" r="4.5" transform="matrix(-1 0 0 1 44 130)" fill="#1E1E1E"/></svg>
