<svg xmlns="http://www.w3.org/2000/svg" width="520" height="520" viewBox="0 0 520 520" fill="none" role="img" aria-label="Seven steps in a continuous cycle">
  <path opacity="0.2" d="M50 50V470M62.5 50V470M75 50V470M87.5 50V470M100 50V470M112.5 50V470M125 50V470M137.5 50V470M150 50V470M162.5 50V470M175 50V470M187.5 50V470M200 50V470M212.5 50V470M225 50V470M237.5 50V470M250 50V470M262.5 50V470M275 50V470M287.5 50V470M300 50V470M312.5 50V470M325 50V470M337.5 50V470M350 50V470M362.5 50V470M375 50V470M387.5 50V470M400 50V470M412.5 50V470M425 50V470M437.5 50V470M450 50V470M462.5 50V470M50 50H470M50 62.5H470M50 75H470M50 87.5H470M50 100H470M50 112.5H470M50 125H470M50 137.5H470M50 150H470M50 162.5H470M50 175H470M50 187.5H470M50 200H470M50 212.5H470M50 225H470M50 237.5H470M50 250H470M50 262.5H470M50 275H470M50 287.5H470M50 300H470M50 312.5H470M50 325H470M50 337.5H470M50 350H470M50 362.5H470M50 375H470M50 387.5H470M50 400H470M50 412.5H470M50 425H470M50 437.5H470M50 450H470M50 462.5H470" stroke="#78716C" stroke-width="0.5"/>
  <circle cx="260" cy="260" r="12" fill="none" stroke="#ED3A20" stroke-width="0.5"/>
  <circle cx="260" cy="260" r="17.75" fill="none" stroke="#ED3A20" stroke-width="0.5"/>
  <circle cx="260" cy="260" r="23.5" fill="none" stroke="#ED3A20" stroke-width="0.5"/>
  <circle cx="260" cy="260" r="29.25" fill="none" stroke="#ED3A20" stroke-width="0.5"/>
  <circle cx="260" cy="260" r="35" fill="none" stroke="#ED3A20" stroke-width="0.5"/>
  <circle cx="260" cy="260" r="40.75" fill="none" stroke="#ED3A20" stroke-width="0.5"/>
  <circle cx="260" cy="260" r="46.5" fill="none" stroke="#ED3A20" stroke-width="0.5"/>
  <circle cx="260" cy="260" r="52.25" fill="none" stroke="#ED3A20" stroke-width="0.5"/>
  <circle cx="260" cy="260" r="58" fill="none" stroke="#ED3A20" stroke-width="0.5"/>
  <circle cx="260" cy="260" r="176" fill="none" stroke="#1E1E1E" stroke-width="0.5"/>
  <circle cx="260" cy="260" r="146" fill="none" stroke="#ED3A20" stroke-width="0.5" stroke-dasharray="2 2"/>
  <path d="M260 198L260 84" fill="none" stroke="#78716C" stroke-width="0.5" stroke-dasharray="2 2"/>
  <circle cx="260" cy="84" r="17" fill="white" stroke="#1E1E1E" stroke-width="0.5"/>
  <text x="260" y="84" fill="#1E1E1E" font-family="Poppins, Arial, sans-serif" font-size="12" font-weight="500" text-anchor="middle" dominant-baseline="central">01</text>
  <path d="M308.474 221.344L397.602 150.266" fill="none" stroke="#78716C" stroke-width="0.5" stroke-dasharray="2 2"/>
  <circle cx="397.602" cy="150.266" r="17" fill="white" stroke="#1E1E1E" stroke-width="0.5"/>
  <text x="397.602" y="150.266" fill="#1E1E1E" font-family="Poppins, Arial, sans-serif" font-size="12" font-weight="500" text-anchor="middle" dominant-baseline="central">02</text>
  <path d="M320.446 273.796L431.587 299.164" fill="none" stroke="#78716C" stroke-width="0.5" stroke-dasharray="2 2"/>
  <circle cx="431.587" cy="299.164" r="17" fill="white" stroke="#1E1E1E" stroke-width="0.5"/>
  <text x="431.587" y="299.164" fill="#1E1E1E" font-family="Poppins, Arial, sans-serif" font-size="12" font-weight="500" text-anchor="middle" dominant-baseline="central">03</text>
  <path d="M286.901 315.86L336.364 418.571" fill="none" stroke="#78716C" stroke-width="0.5" stroke-dasharray="2 2"/>
  <circle cx="336.364" cy="418.571" r="17" fill="white" stroke="#1E1E1E" stroke-width="0.5"/>
  <text x="336.364" y="418.571" fill="#1E1E1E" font-family="Poppins, Arial, sans-serif" font-size="12" font-weight="500" text-anchor="middle" dominant-baseline="central">04</text>
  <path d="M233.099 315.86L183.636 418.571" fill="none" stroke="#78716C" stroke-width="0.5" stroke-dasharray="2 2"/>
  <circle cx="183.636" cy="418.571" r="17" fill="white" stroke="#1E1E1E" stroke-width="0.5"/>
  <text x="183.636" y="418.571" fill="#1E1E1E" font-family="Poppins, Arial, sans-serif" font-size="12" font-weight="500" text-anchor="middle" dominant-baseline="central">05</text>
  <path d="M199.554 273.796L88.4127 299.164" fill="none" stroke="#78716C" stroke-width="0.5" stroke-dasharray="2 2"/>
  <circle cx="88.4127" cy="299.164" r="17" fill="white" stroke="#1E1E1E" stroke-width="0.5"/>
  <text x="88.4127" y="299.164" fill="#1E1E1E" font-family="Poppins, Arial, sans-serif" font-size="12" font-weight="500" text-anchor="middle" dominant-baseline="central">06</text>
  <path d="M211.526 221.344L122.398 150.266" fill="none" stroke="#78716C" stroke-width="0.5" stroke-dasharray="2 2"/>
  <circle cx="122.398" cy="150.266" r="17" fill="#ED3A20" stroke="#ED3A20" stroke-width="0.5"/>
  <text x="122.398" y="150.266" fill="white" font-family="Poppins, Arial, sans-serif" font-size="12" font-weight="500" text-anchor="middle" dominant-baseline="central">07</text>
  <circle cx="183.636" cy="101.429" r="3.5" fill="#ED3A20"/>
</svg>
