<svg xmlns="http://www.w3.org/2000/svg" width="432" height="384" viewBox="0 0 432 384" fill="none" role="img" aria-label="Shared responsibility on one axis">
  <path opacity="0.2" d="M73.44 56.832V327.168M85.94 56.832V327.168M98.44 56.832V327.168M110.94 56.832V327.168M123.44 56.832V327.168M135.94 56.832V327.168M148.44 56.832V327.168M160.94 56.832V327.168M173.44 56.832V327.168M185.94 56.832V327.168M198.44 56.832V327.168M210.94 56.832V327.168M223.44 56.832V327.168M235.94 56.832V327.168M248.44 56.832V327.168M260.94 56.832V327.168M273.44 56.832V327.168M285.94 56.832V327.168M298.44 56.832V327.168M310.94 56.832V327.168M323.44 56.832V327.168M335.94 56.832V327.168M348.44 56.832V327.168M73.44 56.832H358.56M73.44 69.332H358.56M73.44 81.832H358.56M73.44 94.332H358.56M73.44 106.832H358.56M73.44 119.332H358.56M73.44 131.832H358.56M73.44 144.332H358.56M73.44 156.832H358.56M73.44 169.332H358.56M73.44 181.832H358.56M73.44 194.332H358.56M73.44 206.832H358.56M73.44 219.332H358.56M73.44 231.832H358.56M73.44 244.332H358.56M73.44 256.832H358.56M73.44 269.332H358.56M73.44 281.832H358.56M73.44 294.332H358.56M73.44 306.832H358.56M73.44 319.332H358.56" stroke="#78716C" stroke-width="0.5"/>
  <g transform="translate(216 192) scale(1.1) translate(-216 -192)">
    <ellipse cx="216" cy="70" rx="96" ry="21.12" fill="none" stroke="white" stroke-width="0.5"/>
    <ellipse cx="216" cy="91.2" rx="78.8" ry="17.336" fill="none" stroke="white" stroke-width="0.5"/>
    <ellipse cx="216" cy="112.4" rx="61.6" ry="13.552" fill="none" stroke="white" stroke-width="0.5"/>
    <ellipse cx="216" cy="133.6" rx="44.4" ry="9.768" fill="none" stroke="white" stroke-width="0.5"/>
    <ellipse cx="216" cy="154.8" rx="27.2" ry="5.984" fill="none" stroke="white" stroke-width="0.5"/>
    <ellipse cx="216" cy="176" rx="10" ry="2.2" fill="none" stroke="white" stroke-width="0.5"/>
    <ellipse cx="216" cy="208" rx="10" ry="2.2" fill="none" stroke="#ED3A20" stroke-width="0.5"/>
    <ellipse cx="216" cy="229.2" rx="27.2" ry="5.984" fill="none" stroke="#ED3A20" stroke-width="0.5"/>
    <ellipse cx="216" cy="250.4" rx="44.4" ry="9.768" fill="none" stroke="#ED3A20" stroke-width="0.5"/>
    <ellipse cx="216" cy="271.6" rx="61.6" ry="13.552" fill="none" stroke="#ED3A20" stroke-width="0.5"/>
    <ellipse cx="216" cy="292.8" rx="78.8" ry="17.336" fill="none" stroke="#ED3A20" stroke-width="0.5"/>
    <ellipse cx="216" cy="314" rx="96" ry="21.12" fill="none" stroke="#ED3A20" stroke-width="0.5"/>
    <path d="M216 44L216 340" fill="none" stroke="#ED3A20" stroke-width="0.5" stroke-dasharray="2 2"/>
    <circle cx="216" cy="192" r="16" fill="none" stroke="white" stroke-width="0.5"/>
    <circle cx="216" cy="192" r="6" fill="#ED3A20"/>
  </g>
</svg>
